<svg
   xmlns:dc="http://purl.org/dc/elements/1.1/"
   xmlns:cc="http://creativecommons.org/ns#"
   xmlns:rdf="http://www.w3.org/1999/02/22-rdf-syntax-ns#"
   xmlns:svg="http://www.w3.org/2000/svg"
   xmlns="http://www.w3.org/2000/svg"
   xmlns:sodipodi="http://sodipodi.sourceforge.net/DTD/sodipodi-0.dtd"
   xmlns:inkscape="http://www.inkscape.org/namespaces/inkscape"
   width="680"
   height="630"
   id="svg2"
   sodipodi:version="0.32"
   inkscape:version="0.46"
   version="1.0"
   sodipodi:docname="Glagolitic dobro.svg"
   inkscape:output_extension="org.inkscape.output.svg.inkscape">
  <defs
     id="defs4">
    <inkscape:perspective
       sodipodi:type="inkscape:persp3d"
       inkscape:vp_x="0 : 526.18109 : 1"
       inkscape:vp_y="0 : 1000 : 0"
       inkscape:vp_z="744.09448 : 526.18109 : 1"
       inkscape:persp3d-origin="372.04724 : 350.78739 : 1"
       id="perspective10" />
  </defs>
  <sodipodi:namedview
     id="base"
     pagecolor="#ffffff"
     bordercolor="#666666"
     borderopacity="1.0"
     gridtolerance="10000"
     guidetolerance="10"
     objecttolerance="10"
     inkscape:pageopacity="0.0"
     inkscape:pageshadow="2"
     inkscape:zoom="4.225293"
     inkscape:cx="688.20249"
     inkscape:cy="184.53496"
     inkscape:document-units="px"
     inkscape:current-layer="layer1"
     showgrid="true"
     inkscape:window-width="1280"
     inkscape:window-height="738"
     inkscape:window-x="0"
     inkscape:window-y="24">
    <inkscape:grid
       type="xygrid"
       id="grid2380"
       visible="true"
       enabled="true" />
  </sodipodi:namedview>
  <metadata
     id="metadata7">
    <rdf:RDF>
      <cc:Work
         rdf:about="">
        <dc:format>image/svg+xml</dc:format>
        <dc:type
           rdf:resource="http://purl.org/dc/dcmitype/StillImage" />
      </cc:Work>
    </rdf:RDF>
  </metadata>
  <g
     inkscape:label="Layer 1"
     inkscape:groupmode="layer"
     id="layer1">
    <g
       id="g2382">
      <path
         id="path2515"
         d="M 483.4912,621.93375 C 436.5191,608.17519 406.8883,573.52956 396.0006,519.63573 C 389.67,488.3004 390.9338,436.59997 400.6395,329.85008 C 411.4038,211.45676 412.6308,156.36253 405.0754,130.6794 C 395.0405,96.568356 376.8634,79.186991 347.9527,76.057544 C 322.9497,73.351095 306.2505,86.930931 296.3093,118.05392 C 289.864,138.23207 285.0278,189.36413 287.1932,214.43539 C 288.1919,225.99832 290.1692,261.07933 291.5873,292.39325 C 293.0054,323.70717 296.2881,381.40684 298.8822,420.61476 C 304.3408,503.11867 302.5365,531.53214 289.9742,560.89043 C 279.3231,585.7821 258.50115,605.29119 232.80512,614.45469 C 206.14007,623.96375 147.40955,626.48877 120.20164,619.29585 C 81.022286,608.93804 45.486666,583.51579 26.563576,552.30695 C 21.829116,544.49872 15.127086,528.24991 11.670176,516.19863 C 3.1274057,486.41701 4.5267457,427.71575 14.418346,400.92125 C 26.388006,368.49784 48.640716,345.16423 79.528606,332.64859 C 92.953066,327.20905 102.20761,325.89825 128.90664,325.65484 C 146.97807,325.49004 169.19404,326.38298 178.27547,327.63911 L 194.78712,329.92296 L 192.58201,309.65981 C 191.36909,298.5151 190.36738,254.33711 190.35598,211.4865 C 190.33849,145.78119 191.13741,130.52504 195.45612,114.09873 C 203.46552,83.634968 213.04584,64.545381 229.46049,46.342463 C 253.53935,19.64039 280.6959,7.8295315 326.0495,4.3341794 C 401.9844,-1.5181062 453.8101,41.941714 474.8105,129.08145 C 485.4005,173.02387 485.8472,266.1626 475.7616,327.35234 L 473.9507,338.33907 L 495,332.52629 C 539.8103,320.15191 588.0158,322.14455 619.2954,337.66418 C 639.8385,347.85673 659.9801,371.67576 668.6049,395.97658 C 677.8186,421.93614 680.4458,483.86362 673.5338,512.16043 C 662.1312,558.83977 635.11,594.04931 595.578,613.739 C 573.742,624.61484 572.3176,624.90019 536.0566,625.66521 C 509.6856,626.22156 494.4339,625.1389 483.4913,621.93373 L 483.4912,621.93375 z M 172.55618,545.42129 C 186.19901,541.44779 201.71709,527.26561 209.75498,511.42488 C 217.99327,495.18908 218.57864,455.08754 210.88255,434.1706 C 205.20372,418.73637 188.11252,400.62092 172.96858,393.98467 C 145.45089,381.92608 108.08592,393.85704 88.574266,420.93248 C 72.241806,443.59636 67.388976,471.15928 75.025006,497.88961 C 85.489346,534.52047 132.05898,557.21616 172.55615,545.42126 L 172.55618,545.42129 z M 571.1738,539.63897 C 579.8983,535.67374 590.382,527.76122 595.9493,520.93972 C 625.2508,485.0373 610.0553,417.39109 567.879,395.97768 C 532.5928,378.06246 481.4353,400.05598 471.8869,437.2464 C 459.5905,485.13949 471.0329,525.06191 501.7478,541.43102 C 514.058,547.99163 518.8344,548.87608 536.0495,547.78285 C 548.227,547.00953 561.965,543.82426 571.1738,539.63894 L 571.1738,539.63897 z"
         style="fill:#000000;stroke-width:42;stroke-miterlimit:4;stroke-dasharray:none" />
    </g>
  </g>
</svg>